<svg xmlns="http://www.w3.org/2000/svg" width="25" height="25" viewBox="0 0 25 25">
  <metadata><?xpacket begin="﻿" id="W5M0MpCehiHzreSzNTczkc9d"?>
<x:xmpmeta xmlns:x="adobe:ns:meta/" x:xmptk="Adobe XMP Core 5.6-c142 79.160924, 2017/07/13-01:06:39        ">
   <rdf:RDF xmlns:rdf="http://www.w3.org/1999/02/22-rdf-syntax-ns#">
      <rdf:Description rdf:about=""/>
   </rdf:RDF>
</x:xmpmeta>
                                                                                                    
                                                                                                    
                                                                                                    
                                                                                                    
                                                                                                    
                                                                                                    
                                                                                                    
                                                                                                    
                                                                                                    
                                                                                                    
                                                                                                    
                                                                                                    
                                                                                                    
                                                                                                    
                                                                                                    
                                                                                                    
                                                                                                    
                                                                                                    
                                                                                                    
                                                                                                    
                           
<?xpacket end="w"?></metadata>
<defs>
    <style>
      .cls-1 {
        fill: #fff;
        fill-rule: evenodd;
      }
    </style>
  </defs>
  <path id="Instagram" class="cls-1" d="M1200,1015.8a3.218,3.218,0,0,1-3.2,3.21h-18.6a3.227,3.227,0,0,1-3.21-3.21V997.2A3.225,3.225,0,0,1,1178.2,994h18.6a3.217,3.217,0,0,1,3.2,3.207v18.6Zm-2.83-11.22h-2.2a6.876,6.876,0,0,1,.33,2.13,7.779,7.779,0,0,1-15.55,0,7.18,7.18,0,0,1,.32-2.13h-2.29v10.55a0.986,0.986,0,0,0,.99.99h17.41a0.986,0.986,0,0,0,.99-0.99v-10.55Zm-9.65-3a4.873,4.873,0,1,0,5.03,4.87A4.948,4.948,0,0,0,1187.52,1001.58Zm9.65-3.677a1.122,1.122,0,0,0-1.12-1.124h-2.83a1.131,1.131,0,0,0-1.13,1.124v2.687a1.127,1.127,0,0,0,1.13,1.12h2.83a1.118,1.118,0,0,0,1.12-1.12V997.9Z" transform="translate(-1175 -994)"/>
</svg>
