<svg xmlns="http://www.w3.org/2000/svg" width="25" height="25" viewBox="0 0 25 25">
  <metadata><?xpacket begin="﻿" id="W5M0MpCehiHzreSzNTczkc9d"?>
<x:xmpmeta xmlns:x="adobe:ns:meta/" x:xmptk="Adobe XMP Core 5.6-c142 79.160924, 2017/07/13-01:06:39        ">
   <rdf:RDF xmlns:rdf="http://www.w3.org/1999/02/22-rdf-syntax-ns#">
      <rdf:Description rdf:about=""/>
   </rdf:RDF>
</x:xmpmeta>
                                                                                                    
                                                                                                    
                                                                                                    
                                                                                                    
                                                                                                    
                                                                                                    
                                                                                                    
                                                                                                    
                                                                                                    
                                                                                                    
                                                                                                    
                                                                                                    
                                                                                                    
                                                                                                    
                                                                                                    
                                                                                                    
                                                                                                    
                                                                                                    
                                                                                                    
                                                                                                    
                           
<?xpacket end="w"?></metadata>
<defs>
    <style>
      .cls-1 {
        fill: #fff;
        fill-rule: evenodd;
      }
    </style>
  </defs>
  <path id="Twitter" class="cls-1" d="M1169,1014.32a4.7,4.7,0,0,1-4.68,4.69h-15.64a4.7,4.7,0,0,1-4.69-4.69V998.684a4.7,4.7,0,0,1,4.69-4.689h15.64a4.688,4.688,0,0,1,4.68,4.689v15.636Zm-6.13-11.92a3.5,3.5,0,0,0,1.51-1.91,6.7,6.7,0,0,1-2.18.83,3.424,3.424,0,0,0-5.91,2.35,2.914,2.914,0,0,0,.08.78,9.758,9.758,0,0,1-7.07-3.58,3.461,3.461,0,0,0-.47,1.72,3.363,3.363,0,0,0,1.48,2.85,4.276,4.276,0,0,1-1.63-.42v0.03a3.477,3.477,0,0,0,2.82,3.35,2.582,2.582,0,0,1-.83.14,4.5,4.5,0,0,1-.63-0.07,3.451,3.451,0,0,0,3.19,2.38,6.914,6.914,0,0,1-4.25,1.46,5.474,5.474,0,0,1-.82-0.05,9.784,9.784,0,0,0,5.25,1.53,9.67,9.67,0,0,0,9.73-9.73c0-.15,0-0.3-0.01-0.44a6.746,6.746,0,0,0,1.71-1.78A7.205,7.205,0,0,1,1162.87,1002.4Z" transform="translate(-1144 -994)"/>
</svg>
